<svg xmlns="http://www.w3.org/2000/svg" width="26.748" height="26.748" viewBox="0 0 26.748 26.748"><defs><style>.a{fill:none;stroke:#3879f0;stroke-linecap:round;stroke-linejoin:round;}</style></defs><path class="a" d="M28.748,15.159a11.987,11.987,0,0,1-1.287,5.436,12.159,12.159,0,0,1-10.871,6.723,11.987,11.987,0,0,1-5.436-1.287L3,28.748l2.718-8.153A11.987,11.987,0,0,1,4.43,15.159,12.159,12.159,0,0,1,11.153,4.287,11.987,11.987,0,0,1,16.589,3H17.3A12.13,12.13,0,0,1,28.748,14.443Z" transform="translate(-2.5 -2.5)"/></svg>