<svg xmlns="http://www.w3.org/2000/svg" width="26.698" height="26.75" viewBox="0 0 26.698 26.75"><defs><style>.a{fill:none;stroke:#3879f0;stroke-linecap:round;stroke-linejoin:round;}</style></defs><path class="a" d="M27.808,21.277v3.876a2.584,2.584,0,0,1-2.817,2.584,25.569,25.569,0,0,1-11.15-3.966,25.194,25.194,0,0,1-7.752-7.752,25.569,25.569,0,0,1-3.966-11.2A2.584,2.584,0,0,1,4.693,2H8.57a2.584,2.584,0,0,1,2.584,2.222,16.589,16.589,0,0,0,.9,3.631,2.584,2.584,0,0,1-.581,2.726L9.836,12.22a20.672,20.672,0,0,0,7.752,7.752l1.641-1.641a2.584,2.584,0,0,1,2.726-.581,16.589,16.589,0,0,0,3.631.9A2.584,2.584,0,0,1,27.808,21.277Z" transform="translate(-1.611 -1.5)"/></svg>